<?xml version="1.0" encoding="utf-8"?>
<!-- Generator: Adobe Illustrator 22.1.0, SVG Export Plug-In . SVG Version: 6.00 Build 0)  -->
<svg version="1.1" id="Layer_1" xmlns="http://www.w3.org/2000/svg" xmlns:xlink="http://www.w3.org/1999/xlink" x="0px" y="0px"
	 viewBox="0 0 1080 1080" style="enable-background:new 0 0 1080 1080;" xml:space="preserve">
<style type="text/css">
	.st0{fill:#FFFFFF;}
	.st1{fill:#F7F1F7;}
	.st2{fill:#4AAA48;}
	.st3{fill:#FBD00F;}
	.st4{fill:#E4262B;}
</style>
<g>
	<circle class="st0" cx="483.3" cy="541.7" r="379.8"/>
	<path class="st1" d="M484,977.2c-59,0-116.2-11.6-170.2-34.4c-52.1-22-98.8-53.5-138.9-93.7c-40.1-40.1-71.6-86.9-93.7-138.9
		C58.4,656.2,46.9,599,46.9,540c0-59,11.6-116.2,34.4-170.2c22-52.1,53.5-98.8,93.7-138.9c40.1-40.1,86.9-71.6,138.9-93.7
		c53.9-22.8,111.2-34.4,170.2-34.4c59,0,116.2,11.6,170.2,34.4c52.1,22,98.8,53.5,138.9,93.7c40.1,40.1,71.6,86.9,93.7,138.9
		c22.8,53.9,34.4,111.2,34.4,170.2c0,59-11.6,116.2-34.4,170.2c-22,52.1-53.5,98.8-93.7,138.9c-40.1,40.1-86.9,71.6-138.9,93.7
		C600.3,965.6,543,977.2,484,977.2z M484,150.8c-52.5,0-103.5,10.3-151.5,30.6c-46.3,19.6-88,47.7-123.7,83.4
		c-35.7,35.7-63.8,77.4-83.4,123.7c-20.3,48-30.6,99-30.6,151.5c0,52.5,10.3,103.5,30.6,151.5c19.6,46.3,47.7,88,83.4,123.7
		c35.7,35.7,77.4,63.8,123.7,83.4c48,20.3,99,30.6,151.5,30.6c52.5,0,103.5-10.3,151.5-30.6c46.3-19.6,88-47.7,123.7-83.4
		c35.7-35.7,63.8-77.4,83.4-123.7c20.3-48,30.6-99,30.6-151.5c0-52.5-10.3-103.5-30.6-151.5c-19.6-46.3-47.7-88-83.4-123.7
		c-35.7-35.7-77.4-63.8-123.7-83.4C587.5,161.1,536.6,150.8,484,150.8z"/>
	<path class="st2" d="M484,993.6c-61.2,0-120.6-12-176.6-35.7c-54-22.9-102.5-55.5-144.2-97.2c-41.6-41.6-74.3-90.1-97.2-144.2
		c-23.7-56-35.7-115.4-35.7-176.6c0-61.2,12-120.6,35.7-176.6c22.8-54,55.5-102.5,97.2-144.2c41.6-41.6,90.1-74.3,144.2-97.2
		c56-23.7,115.4-35.7,176.6-35.7c61.2,0,120.6,12,176.6,35.7c54,22.9,102.5,55.5,144.2,97.2c41.6,41.6,74.3,90.1,97.2,144.2
		c23.7,56,35.7,115.4,35.7,176.6c0,61.2-12,120.6-35.7,176.6c-22.9,54-55.5,102.5-97.2,144.2c-41.6,41.6-90.1,74.3-144.2,97.2
		C604.6,981.6,545.2,993.6,484,993.6z M484,134.4c-54.7,0-107.9,10.7-157.9,31.9c-48.3,20.4-91.7,49.7-128.9,86.9
		c-37.2,37.2-66.5,80.6-86.9,128.9c-21.2,50-31.9,103.1-31.9,157.9c0,54.7,10.7,107.9,31.9,157.9c20.4,48.3,49.7,91.7,86.9,128.9
		c37.2,37.2,80.6,66.5,128.9,86.9c50,21.2,103.1,31.9,157.9,31.9c54.7,0,107.9-10.7,157.9-31.9c48.3-20.4,91.7-49.7,128.9-86.9
		c37.2-37.2,66.5-80.6,86.9-128.9c21.2-50,31.9-103.1,31.9-157.9c0-54.7-10.7-107.9-31.9-157.9c-20.4-48.3-49.7-91.7-86.9-128.9
		c-37.2-37.2-80.6-66.5-128.9-86.9C591.9,145.1,538.8,134.4,484,134.4z"/>
	<path class="st3" d="M484,938.4c-53.8,0-105.9-10.5-155.1-31.3c-47.4-20.1-90-48.8-126.6-85.4S137,742.5,117,695.1
		C96.2,645.9,85.6,593.8,85.6,540S96.2,434.1,117,384.9c20.1-47.4,48.8-90,85.4-126.6s79.2-65.3,126.6-85.4
		c49.1-20.8,101.3-31.3,155.1-31.3s105.9,10.5,155.1,31.3c47.4,20.1,90,48.8,126.6,85.4s65.3,79.2,85.4,126.6
		c20.8,49.1,31.3,101.3,31.3,155.1s-10.5,105.9-31.3,155.1c-20.1,47.4-48.8,90-85.4,126.6s-79.2,65.3-126.6,85.4
		C590,927.9,537.8,938.4,484,938.4z M484,189.6c-93.6,0-181.6,36.4-247.8,102.6S133.6,446.4,133.6,540s36.4,181.6,102.6,247.8
		S390.4,890.4,484,890.4s181.6-36.4,247.8-102.6S834.4,633.6,834.4,540S798,358.4,731.8,292.2S577.6,189.6,484,189.6z"/>
	<path class="st0" d="M1049.6,434v292.5c0,6.6-5.4,12-12,12H731.9V422h305.6C1044.2,422,1049.6,427.4,1049.6,434z"/>
	<g>
		<path class="st4" d="M194.2,461.1v64c0,6,3.3,11.8,10,17.4c6.6,5.6,10,11,10,15.9c0,11-3.8,16.4-11.5,16.4c-7,0-13.4-2.8-19.4-8.5
			c-6-5.6-9-16.1-9-31.4V425.5h8.6c15.5,17.5,26,25.1,31.3,22.6c-1.3,9.5-4.4,15-9.2,16.6C202.1,465.8,198.5,464.5,194.2,461.1z"/>
		<path class="st4" d="M254,464.4c0-13.9,5.9-23.9,17.6-29.9c11.7-6,25.8-9,42.2-9c16.4,0,30.5,2.8,42.2,8.5
			c11.7,5.6,17.6,17.4,17.6,35.4c0,23.7-22,47.1-66.1,70.1l9.4,11.1l45.9-45.5c1.3,11-4.2,25.4-16.6,43
			c-12.4,17.7-21.6,26.6-27.6,26.9c-5.9,0-14.8-6.6-26.5-19.8c-11.8-13.2-12.5-23.1-2.1-29.6c42.6-20.4,63.8-39.1,63.8-56.2
			c0-15.9-13.3-23.9-39.8-23.9c-26.6,0-39.8,6.3-39.8,18.9c0,8.6,3.2,12.9,9.6,12.9c0-8,3.5-12.6,10.5-13.8c7-1.3,11.7,1.2,13.9,7.4
			c2.3,6.2,1.3,11.8-3.1,16.8c-4.3,5-11.5,7.5-21.4,7.5C263.8,495.2,254,485,254,464.4z"/>
		<path class="st4" d="M552.8,525.1c-2.7,26.6-17.6,43.2-44.8,49.8h-38.4c-8,0-18-5.1-30.1-15.4c-12.1-10.3-19.1-20.9-21.1-32
			L449,500c-7.2-13.9-17.4-22.9-30.7-26.9l32.5-47.6c18.9,12.9,30.9,18.1,36.3,15.6c-1.3,9.5-4.4,15.1-9.2,16.7
			c-4.8,1.6-13.4-0.8-25.7-7.3l-9.8,13.4c8.7,6,15.5,12.1,20.4,18.2c2.4,3,4.2,5.8,5.5,8.6h64.6v-3.1c0-7.4-3.4-12.3-10.2-14.6
			c-2.3-0.8-3.4-2.2-3.4-4.3c0-2,1.2-3.9,3.7-5.6c36.3-25.1,56.4-37.6,60.2-37.6c3.9,0,25.3,12,64.2,35.9V565c0,6.6-2.7,10-8.1,10
			c-5.4,0-11.3-1.8-17.5-5.5c-6.2-3.7-9.3-8.2-9.3-13.7c0-5.5,2.5-10.7,7.5-15.4c5-4.8,7.5-9.8,7.5-15.1v-52l-44.9-25.4l-32.3,23.1
			c1.7,3,2.5,6.3,2.5,9.9V525.1z M465.2,510.7c-0.7,0.9-1.6,1.9-2.6,2.8l-18.3,18.7c5.2,8.8,13.6,16.4,25.2,22.8H508
			c13.3-5.3,21.6-15.3,24.9-29.9v-14.4H465.2z"/>
	</g>
	<g>
		<path class="st4" d="M684.2,546.7c2.5,3.4,5.6,6.4,9.2,8.9h17.3c3.3-2.4,5.8-4.6,7.4-6.6c1.2-1.6,2.5-1.9,3.8-0.9
			c0.6,0.4,0.9,1,0.9,1.7c0,0.8-0.4,1.7-1.2,2.9c-1.9,2.5-5.1,5.2-9.4,8.1h-20.4c-5.1-3.4-9.3-7.6-12.7-12.7v-72.5
			c3.4-5.1,7.6-9.3,12.7-12.7h20.4c4.3,2.9,7.5,5.6,9.4,8.1c0.8,1.1,1.2,2.1,1.2,2.9c0,0.7-0.3,1.2-0.9,1.7c-1.3,1-2.6,0.7-3.8-0.9
			c-1.6-2-4.1-4.2-7.4-6.6h-17.3c-3.6,2.5-6.6,5.5-9.2,8.9V546.7z M724.9,515v-0.8c-0.7-2.3-2.9-3.8-6.6-4.5l8.3-11.4
			c4.3,3.3,7.1,4.6,8.5,4c-0.3,2.4-1,3.8-2.1,4.3c-1.1,0.4-3.1-0.2-6.1-1.9l-2,2.4c3,1.4,4.7,3.6,5.1,6.6v10.1
			c-0.7,6.8-4.5,11-11.5,12.7h-9.8c-2,0-4.6-1.3-7.7-3.9s-4.9-5.4-5.4-8.2l7.8-7c-1.8-3.6-4.4-5.9-7.8-6.9l8.3-12.2
			c4.8,3.3,7.9,4.6,9.3,4c-0.3,2.4-1.1,3.8-2.4,4.3c-1.2,0.4-3.4-0.2-6.6-1.9l-2.5,3.4c2.2,1.5,4,3.1,5.2,4.7
			c0.6,0.8,1.1,1.5,1.4,2.2H724.9z M707.7,520.1c-0.2,0.2-0.4,0.5-0.7,0.7l-4.7,4.8c1.3,2.2,3.5,4.2,6.4,5.8h9.8
			c3.4-1.4,5.5-3.9,6.4-7.6v-3.7H707.7z"/>
		<path class="st4" d="M729,487.4c0,1.4-1.2,2.1-3.7,2.1h-19.2c-3.7,0-5.6-0.8-5.6-2.5c0-1.7,0.5-3.4,1.5-5.1l3.1-5.1
			c1-1.7,2-2.5,2.8-2.5c0.9,0,2,0.4,3.3,1.1l12.7,7.2v-7c0-1.7,0.8-2.5,2.5-2.5s2.5,0.8,2.5,2.5V487.4z M706.1,484.4h11.7l-9.2-4.6
			L706.1,484.4z"/>
		<path class="st4" d="M742.7,505.2c10.2-4.6,15.8-6.9,16.8-6.9c1,0,5.1,1.6,12.4,4.7c7.3-3.2,11.5-4.7,12.5-4.7c1,0,2.9,0.7,5.5,2
			c2.6,1.4,6.4,2.5,11.4,3.6c-0.4,3.1-1.7,4.5-3.8,4.3c-2.1-0.2-6.5-1.8-13.2-4.8l-12.4,5.2l-12.3-5.3l-9,3.8l1.3,1.5l-4.3,2
			l-4.9-4.2V505.2z M798.7,534c0,1.7-0.7,2.5-2.1,2.5c-1.4,0-2.9-0.5-4.5-1.4c-1.6-0.9-2.4-2.1-2.4-3.5c0-1.4,0.6-2.7,1.9-3.9
			s1.9-2.5,1.9-3.9V518L784,513l-9.4,5.1v16c0,1.7-0.7,2.5-2.1,2.5c-1.4,0-2.9-0.5-4.5-1.4c-1.6-0.9-2.4-2.1-2.4-3.5
			c0-1.4,0.6-2.7,1.9-3.9s1.9-2.5,1.9-3.9V518l-9.7-5.1l-9.4,5.1v6.3c0,0.7,0.9,1.8,2.6,3.2c1.8,1.5,2.3,3.3,1.6,5.6
			c-0.7,2.3-1.8,3.4-3.4,3.4c-1.6,0-3-0.6-4.2-1.9c-1.2-1.3-1.7-3.1-1.7-5.5v-12.4c0-1.3,0.6-2.3,1.8-3l12.7-6l12.2,5.7l12-5.7
			l12.7,6c1.4,0.7,2.1,1.7,2.1,3V534z"/>
		<path class="st4" d="M781.5,554.4c-0.1,1,0.5,1.5,1.7,1.6c1.2,0.1,3-0.7,5.2-2.5s4.6-4.1,7-7.1s3.8-4.4,4.2-4.1
			c0.3,0.2,0.5,0.8,0.5,1.7c0,0.9-0.3,2-1,3.3c-4.8,9-10.3,13.5-16.3,13.5c-3.1,0-5.3-1.2-6.5-3.6c-0.4-0.7-0.6-1.4-0.6-2.1
			c0-1.6,1-3.1,3-4.5c4.6-4.1,7.3-6.5,7.9-7.4c-1.2-0.8-1.6-1.7-1.2-2.6s1.6-1.4,3.4-1.4c1.6,0,2.7,0.7,3.2,2
			c0.5,1.3,0.1,2.9-1.2,4.7C787.9,549.3,784.8,552.2,781.5,554.4z"/>
		<path class="st4" d="M844.6,523.8c-0.7,6.8-4.5,11-11.5,12.7h-9.8c-2,0-4.6-1.3-7.7-3.9s-4.9-5.4-5.4-8.2l7.8-7
			c-1.8-3.6-4.4-5.9-7.8-6.9l8.3-12.2c4.8,3.3,7.9,4.6,9.3,4c-0.3,2.4-1.1,3.8-2.4,4.3c-1.2,0.4-3.4-0.2-6.6-1.9l-2.5,3.4
			c2.2,1.5,4,3.1,5.2,4.7c1.3,1.6,1.9,3,1.9,4.2s-0.6,2.5-1.9,3.7l-4.7,4.8c1.3,2.2,3.5,4.2,6.4,5.8h9.8c3.4-1.4,5.5-3.9,6.4-7.6
			v-9.6c0-1.9-0.9-3.1-2.6-3.7c-0.6-0.2-0.9-0.6-0.9-1.1c0-0.5,0.3-1,0.9-1.4c9.3-6.4,14.4-9.6,15.4-9.6c1,0,6.5,3.1,16.4,9.2V534
			c0,1.7-0.7,2.5-2.1,2.5c-1.4,0-2.9-0.5-4.5-1.4c-1.6-0.9-2.4-2.1-2.4-3.5c0-1.4,0.6-2.7,1.9-3.9s1.9-2.5,1.9-3.9v-13.3l-11.5-6.5
			l-8.2,5.9c0.4,0.8,0.6,1.6,0.6,2.5V523.8z"/>
		<path class="st4" d="M839.2,486.9c0-1.7,0.5-3.4,1.5-5.1l3.1-5.1c1-1.7,2-2.5,2.8-2.5c0.9,0,2,0.4,3.3,1.1l13.8,7.8
			c2.6,1.5,4,2.9,4,4.3c0,0,0,0,0,0.1c0,1.4-1.2,2.1-3.7,2.1h-19.2C841.1,489.5,839.2,488.6,839.2,486.9z M844.8,484.4h11.7
			l-9.2-4.6L844.8,484.4z"/>
		<path class="st4" d="M890.4,524.1c0,4.6-0.8,7.8-2.3,9.7c-1.5,1.9-3.2,2.8-5,2.8c-2,0-2.9-1.4-2.9-4.2c0-1.3,0.8-2.6,2.5-4.1
			c1.7-1.4,2.5-2.9,2.5-4.5v-9.6c0-2.3-1.7-3.8-5.1-4.5l7.3-11.4c3.3,4,6.4,4.7,9.3,2.2c0,2.1-0.7,3.9-2.1,5.4
			c-1.4,1.5-3.6,1.4-6.6-0.5l-1.5,2.2c2.5,1.2,3.8,2.8,3.8,4.8V524.1z"/>
		<path class="st4" d="M936.2,511.1V534c0,1.7-0.7,2.5-2.1,2.5c-1.4,0-2.9-0.5-4.5-1.4c-1.6-0.9-2.4-2.1-2.4-3.5
			c0-1.4,0.6-2.7,1.9-3.9s1.9-2.5,1.9-3.9v-15.3l-4.1-3.4l-6.1,4.2l-6.1-4.2l-4,3.4v12.1c0.5-0.7,1.4-1.1,2.7-1.1
			c4.5,0,6.7,2.3,6.7,6.9c0,2.6-0.8,5-2.3,7.1c-1.5,2.1-3.2,3.1-5,3.1c-1.6,0-3.3-1-4.9-3.1c-1.6-2.1-2.4-4.2-2.4-6.3v-19.5
			c0-1.3,0.7-2.6,2.2-3.8l6.6-5.5l6.5,4.5l6.4-4.5l6.6,5.5c0.5,0.4,0.8,0.7,1.1,1.1c5.4-4.4,8.5-6.6,9.4-6.6c1,0,6.3,3.1,15.9,9.2
			V534c0,1.7-0.7,2.5-2.1,2.5c-1.4,0-2.9-0.5-4.5-1.4c-1.6-0.9-2.4-2.1-2.4-3.5c0-1.4,0.6-2.7,1.9-3.9s1.9-2.5,1.9-3.9v-13.5
			l-11-6.2L936.2,511.1z M910.7,527.1c0.3,2.4,1.1,3.8,2.2,4.3c0.6,0,1.1-0.6,1.5-1.8s0.6-2.3,0.6-3.3c0-1.4-0.5-2-1.6-2
			C911.6,524.3,910.7,525.3,910.7,527.1z"/>
		<path class="st4" d="M936.2,545.5v6.6c0,0.8-0.7,1.2-2.1,1.2c-1.4,0-2.9-0.2-4.5-0.7c-1.6-0.4-2.4-0.9-2.4-1.4
			c0-0.5,0.6-1,1.9-1.5c1.3-0.5,1.9-1.1,1.9-1.7v-3.8l-4.1-1.6l-6.1,2l-6.1-2l-4,1.6v2.2c0.5-0.4,1.4-0.5,2.7-0.5
			c3.1,0,4.7,1.1,4.7,3.3c0,0.8-0.4,1.6-1.2,2.6c-0.8,1-2.1,1.5-3.9,1.5c-1.6,0-3.3-0.5-4.9-1.5c-1.6-1-2.4-1.7-2.4-2.3v-6.1
			c0-0.6,0.7-1.2,2.2-1.8l6.6-2.6l6.5,2.1l6.4-2.1l6.6,2.6c0.5,0.2,0.8,0.3,1.1,0.5c5.4-2.1,8.5-3.1,9.4-3.1c1,0,6.3,1.5,15.9,4.4
			v8.7c0,0.8-0.7,1.2-2.1,1.2c-1.4,0-2.9-0.2-4.5-0.7c-1.6-0.4-2.4-0.9-2.4-1.4c0-0.5,0.6-1,1.9-1.5c1.3-0.5,1.9-1.1,1.9-1.7v-2.7
			l-11-3L936.2,545.5z M951.3,558c2.6-0.4,3.9-0.9,3.9-1.5c0-0.6-0.8-0.7-2.5-0.3c-1.5,0-2.2-0.4-2.2-1.2c0-0.8,0.7-1.2,2.2-1.2
			c5.1,0,7.6,0.9,7.6,2.7c0,1.6-1.8,2.9-5.3,4c-3.5,1-9.9,1.6-19.1,1.6c-6.6,0-12.1-0.5-16.5-1.5c-4.4-1-8.6-2.4-12.4-4
			c-1-0.5-1.5-1-1.5-1.4c0-0.5,0.8-0.7,2.5-0.7c1.6,0,2.8,0.2,3.6,0.7c5.8,2.4,13.9,3.6,24.4,3.6C943.6,558.6,948.7,558.4,951.3,558
			z M910.7,549.6c0.3,0.6,1.1,1.1,2.2,1.3c0.6,0,1.1-0.2,1.5-0.5c0.4-0.3,0.6-0.7,0.6-1.2c0-0.6-0.5-1-1.6-1
			C911.6,548.3,910.7,548.7,910.7,549.6z"/>
		<path class="st4" d="M976.9,514.3c0-2.3-1.7-3.8-5.1-4.5l7.3-11.4c1.6,2,3.1,3.1,4.3,3.3c1.2,0.2,1.4-3.4,0.5-10.9
			c3,2.1,4.5,5.2,4.5,9.3c0,2.9-0.7,5-2.1,6.3c-1.4,1.3-3.6,1-6.6-0.8l-1.5,2.2c2.5,1.2,3.8,2.8,3.8,4.8v11.6c0,4.6-0.8,7.8-2.3,9.7
			c-1.5,1.9-3.2,2.8-5,2.8c-2,0-2.9-1.4-2.9-4.2c0-1.3,0.8-2.6,2.5-4.1c1.7-1.4,2.5-2.9,2.5-4.5V514.3z"/>
		<path class="st4" d="M994.7,504.2l6.4-4.3c1.4-1,2.4-1.5,3.1-1.5c0.6,0,3.4,0.9,8.3,2.7c4-1.8,6.4-2.7,7-2.7
			c0.6,0,1.8,0.5,3.7,1.5c1.8,1,4.2,2,7.2,3c-1.8,2.9-3.5,4.1-5,3.6c-1.5-0.5-3.6-1.6-6.1-3.3l-6.8,3.2l-7.8-2.8l-3.9,2.6l1.3,2
			l-2.9,1.5l-4.4-4.2V504.2z M1002.4,521.6c0.5-0.7,1.4-1.1,2.7-1.1c4.5,0,6.7,2.3,6.7,6.9c0,2-0.8,4-2.3,6c-1.5,2.1-3.2,3.1-5,3.1
			c-1.6,0-3.3-1-4.9-3.1c-1.6-2.1-2.4-3.8-2.4-5.3v-11.7c0-1.3,0.6-2.3,1.9-3l13.4-6.5l13.4,6.5c1.3,0.7,1.9,1.7,1.9,3V534
			c0,1.7-0.7,2.5-2.1,2.5c-1.4,0-2.9-0.5-4.5-1.4c-1.6-0.9-2.4-2.1-2.4-3.5c0-1.4,0.6-2.7,1.9-3.9s1.9-2.5,1.9-3.9v-6.1l-10.2-5.1
			l-10.2,5.1V521.6z M1002.4,528.2c0.3,1.7,1.1,2.8,2.2,3.3c0.6,0,1.1-0.4,1.5-1.3s0.6-1.8,0.6-2.7c0-1.4-0.5-2-1.6-2
			C1003.3,525.4,1002.4,526.3,1002.4,528.2z"/>
		<path class="st4" d="M1003.7,548.5c1.3-0.9,2.8-1.2,4.6-0.9c3.2,0.6,4.8,2.4,4.8,5.4c0,4.2-2.1,6.4-6.4,6.4
			c-5.6,0-8.4-3.1-8.4-9.4c0-6.5,4.2-9.7,12.7-9.7c7.5,0,12.5,1.9,14.9,5.8c0.5,0.8,0.7,1.5,0.7,2.1c0,0.8-0.4,1.4-1.2,1.8
			c-1.4,0.8-2.7,0.3-3.9-1.5c-1.2-2.1-4.7-3.2-10.6-3.2C1007,545.5,1004.5,546.5,1003.7,548.5z M1003.9,552.6
			c0.5,1.2,1.5,1.7,2.9,1.7c0.8,0,1.3-0.4,1.3-1.3c0-0.9-0.8-1.3-2.5-1.4C1004.9,551.7,1004.4,552,1003.9,552.6z"/>
		<path class="st4" d="M1025.3,565.8v9.5c0,1.3-0.8,1.9-2.5,1.9c-1.7,0-2.5-0.6-2.5-1.9v-7.6c0-0.9-0.6-1.5-1.7-1.7
			c-1.1-0.3-1.7-1-1.7-2.2c0-1.2,1.1-1.8,3.3-1.8C1023.6,562,1025.3,563.3,1025.3,565.8z"/>
	</g>
	<g>
		<path class="st4" d="M230.2,644.4l6.7,10l-0.9,0.6c-0.7-0.6-1.2-0.9-1.6-0.9c-0.4,0-1.6,0.6-3.5,1.7c-4,2.3-7.4,3.9-10.2,4.7
			c-2.8,0.8-6,1.2-9.8,1.2c-7.6,0-13.8-1.8-18.6-5.4c-2.9-2.1-5.1-4.7-6.7-7.8c-1.9-3.5-2.8-7.4-2.8-11.7c0-5.8,1.7-10.9,5.1-15.1
			c5.1-6.4,12.8-9.7,23.2-9.7c3.8,0,7.1,0.4,9.8,1.2c2.7,0.8,6.1,2.4,10.2,4.7c1.9,1.1,3.1,1.7,3.5,1.7c0.4,0,1-0.3,1.6-0.9l0.9,0.6
			l-6.7,10l-0.9-0.6c0-0.4,0.1-0.7,0.1-0.9c0-0.7-0.3-1.3-0.9-1.9c-0.6-0.6-1.6-1.3-3.1-2.2c-4.1-2.3-8.5-3.5-13.2-3.5
			c-5.5,0-9.9,1.4-13.1,4.1c-3.8,3.2-5.8,7.4-5.8,12.6s1.9,9.4,5.8,12.6c3.3,2.7,7.6,4.1,13.1,4.1c4.6,0,9-1.2,13.2-3.5
			c1.5-0.8,2.5-1.6,3.1-2.2c0.6-0.6,0.9-1.2,0.9-1.9c0-0.3,0-0.6-0.1-0.9L230.2,644.4z"/>
		<path class="st4" d="M273,651.1h-18.1l-2,4.3c-0.5,1-0.7,1.8-0.7,2.4c0,1.1,0.7,1.8,2.2,2.1v1H240v-1c0.9-0.1,1.6-0.4,2-0.8
			c0.4-0.4,0.9-1.2,1.5-2.4l14.4-29.1c0.5-1.1,0.8-2.1,0.8-2.9c0-1-0.7-1.7-2-2.2v-1H272v1c-1.3,0.5-1.9,1.3-1.9,2.4
			c0,0.8,0.3,1.7,0.9,2.8l14.9,28.2c0.8,1.5,1.5,2.5,1.9,3c0.5,0.5,1.2,0.8,2.1,1v1h-16.1v-1c1.5-0.3,2.3-1,2.3-2.1
			c0-0.7-0.3-1.6-0.9-2.7L273,651.1z M270.2,645.5l-6.4-12.7l-6.1,12.7H270.2z"/>
		<path class="st4" d="M318.3,660.9L304,635v22.3c0,0.7,0.2,1.3,0.5,1.7c0.3,0.4,0.9,0.7,1.8,1v1h-13.1v-1c0.8-0.2,1.4-0.5,1.7-0.9
			c0.3-0.4,0.5-1,0.5-1.7v-32.2c0-0.7-0.2-1.3-0.5-1.7c-0.3-0.4-0.9-0.7-1.8-0.9v-1h16.6v1c-1.1,0.4-1.7,1-1.7,2
			c0,1,0.4,2.1,1.2,3.5l9.8,17.8l9.9-17.6c1.1-1.9,1.7-3.2,1.7-3.9c0-1-0.6-1.6-1.7-1.8v-1h16.2v1c-0.8,0.2-1.4,0.5-1.8,0.9
			c-0.3,0.4-0.5,0.9-0.5,1.7v32.2c0,0.7,0.2,1.3,0.5,1.7c0.3,0.4,0.9,0.7,1.8,0.9v1h-13.9v-1c0.8-0.2,1.4-0.5,1.7-0.9
			c0.3-0.4,0.5-1,0.5-1.7V635L318.3,660.9z"/>
		<path class="st4" d="M377.3,660.9L362.9,635v22.3c0,0.7,0.2,1.3,0.5,1.7c0.3,0.4,0.9,0.7,1.8,1v1h-13.1v-1
			c0.8-0.2,1.4-0.5,1.7-0.9c0.3-0.4,0.5-1,0.5-1.7v-32.2c0-0.7-0.2-1.3-0.5-1.7c-0.3-0.4-0.9-0.7-1.8-0.9v-1h16.6v1
			c-1.1,0.4-1.7,1-1.7,2c0,1,0.4,2.1,1.2,3.5l9.8,17.8l9.9-17.6c1.1-1.9,1.7-3.2,1.7-3.9c0-1-0.6-1.6-1.7-1.8v-1h16.2v1
			c-0.8,0.2-1.4,0.5-1.8,0.9c-0.3,0.4-0.5,0.9-0.5,1.7v32.2c0,0.7,0.2,1.3,0.5,1.7c0.3,0.4,0.9,0.7,1.8,0.9v1h-13.9v-1
			c0.8-0.2,1.4-0.5,1.7-0.9c0.3-0.4,0.5-1,0.5-1.7V635L377.3,660.9z"/>
		<path class="st4" d="M440.8,651.1h-18.1l-2,4.3c-0.5,1-0.7,1.8-0.7,2.4c0,1.1,0.7,1.8,2.2,2.1v1h-14.5v-1c0.9-0.1,1.6-0.4,2-0.8
			c0.4-0.4,0.9-1.2,1.5-2.4l14.4-29.1c0.5-1.1,0.8-2.1,0.8-2.9c0-1-0.7-1.7-2-2.2v-1h15.3v1c-1.3,0.5-1.9,1.3-1.9,2.4
			c0,0.8,0.3,1.7,0.9,2.8l14.9,28.2c0.8,1.5,1.5,2.5,1.9,3c0.5,0.5,1.2,0.8,2.1,1v1h-16.1v-1c1.5-0.3,2.3-1,2.3-2.1
			c0-0.7-0.3-1.6-0.9-2.7L440.8,651.1z M438,645.5l-6.4-12.7l-6.1,12.7H438z"/>
		<path class="st4" d="M509.3,660.9l-17.7-33.1v29.4c0,0.7,0.2,1.3,0.5,1.7c0.3,0.4,0.9,0.7,1.8,0.9v1.1h-14.1v-1.1
			c0.8-0.2,1.4-0.5,1.8-0.9c0.3-0.4,0.5-0.9,0.5-1.7v-40.6c0-0.7-0.2-1.2-0.5-1.6c-0.3-0.4-0.9-0.7-1.8-0.9v-1.1h18.5v1.1
			c-1.1,0.3-1.7,0.9-1.7,1.9c0,0.5,0.2,1,0.5,1.6l13.1,24.8l13.3-24.4c0.6-1.1,0.9-1.9,0.9-2.4c0-1-0.6-1.5-1.8-1.6v-1.1h18.1v1.1
			c-0.8,0.2-1.4,0.5-1.8,0.9c-0.3,0.4-0.5,0.9-0.5,1.6v40.6c0,0.7,0.2,1.3,0.5,1.7c0.3,0.4,0.9,0.7,1.8,0.9v1.1h-15v-1.1
			c0.8-0.2,1.4-0.5,1.7-0.9s0.5-0.9,0.5-1.7v-29.4L509.3,660.9z"/>
		<path class="st4" d="M560.1,625.1v32.2c0,0.7,0.2,1.3,0.5,1.7c0.3,0.4,0.9,0.7,1.8,1v1h-13.9v-1c0.8-0.2,1.4-0.5,1.7-0.9
			c0.3-0.4,0.5-1,0.5-1.7v-32.2c0-0.7-0.2-1.3-0.5-1.7c-0.3-0.4-0.9-0.7-1.8-0.9v-1h13.9v1c-0.8,0.2-1.4,0.5-1.8,0.9
			C560.3,623.8,560.1,624.4,560.1,625.1z"/>
		<path class="st4" d="M607.8,646.8l5.9,8.7l-0.8,0.6c-0.6-0.4-1-0.6-1.3-0.6c-0.4,0-1.3,0.4-2.8,1.3c-3.2,1.9-6,3.2-8.5,3.9
			c-2.5,0.7-5.3,1.1-8.5,1.1c-6.4,0-11.7-1.5-15.7-4.6c-2.3-1.8-4.1-4-5.5-6.6c-1.5-2.9-2.2-6-2.2-9.3c0-4.6,1.3-8.7,4-12.2
			c4.2-5.5,10.6-8.3,19.3-8.3c3.2,0,6.1,0.4,8.6,1.1c2.5,0.7,5.3,2,8.5,3.9c1.5,0.9,2.4,1.3,2.8,1.3c0.3,0,0.8-0.2,1.3-0.6l0.8,0.6
			l-5.9,8.6l-0.8-0.6c0-0.3,0-0.5,0.1-0.5c0-0.2,0-0.4,0-0.5c0-1.1-1.6-2.4-4.7-3.9c-3-1.4-6-2.1-9.1-2.1c-4.3,0-7.8,1.1-10.5,3.4
			c-3.2,2.5-4.7,5.8-4.7,9.7c0,4,1.6,7.2,4.7,9.7c2.8,2.2,6.3,3.3,10.5,3.3c3.3,0,6.6-0.8,9.9-2.5c2.6-1.3,3.9-2.5,3.9-3.4
			c0,0,0-0.4-0.1-1L607.8,646.8z"/>
		<path class="st4" d="M631.1,644.7v12.5c0,0.7,0.2,1.3,0.5,1.7s0.9,0.7,1.8,1v1h-13.9v-1c0.8-0.2,1.4-0.5,1.7-0.9
			c0.3-0.4,0.5-1,0.5-1.7v-32.2c0-0.7-0.2-1.3-0.5-1.7c-0.3-0.4-0.9-0.7-1.8-0.9v-1h25.8c3.3,0,5.9,0.2,7.7,0.5
			c1.8,0.3,3.3,1,4.7,1.8c2.8,1.9,4.3,4.9,4.3,9.1c0,3.2-0.9,5.7-2.6,7.5s-4.6,3.1-8.5,3.9l7.4,10.4c1.4,1.9,2.4,3.2,3.2,3.9
			s1.7,1.1,2.8,1.3v1h-16.5v-1c1.2-0.3,1.8-0.9,1.8-1.6c0-0.5-0.4-1.3-1.1-2.3l-7.9-11.3H631.1z M631.1,637.6h14.2
			c2.2,0,3.7-0.2,4.8-0.7c1.5-0.6,2.2-1.9,2.2-3.8c0-1.7-0.5-2.8-1.5-3.5c-1-0.7-2.8-1-5.4-1h-14.2V637.6z"/>
		<path class="st4" d="M690.1,620.7c6.3,0,11.5,1.6,15.6,4.8c5,3.8,7.5,9.2,7.5,16.1c0,6.4-2.5,11.6-7.5,15.4
			c-4.1,3.2-9.3,4.8-15.6,4.8s-11.5-1.6-15.6-4.8c-5-3.8-7.5-9.1-7.5-15.7c0-6.7,2.5-12,7.5-15.7
			C678.8,622.4,683.9,620.8,690.1,620.7z M690.1,628.2c-4.1,0-7.4,1.3-9.9,3.9c-2.4,2.4-3.6,5.5-3.6,9.2c0,3.7,1.2,6.7,3.6,9.1
			c2.6,2.6,5.9,3.9,10,3.9c4.1,0,7.4-1.3,9.9-3.9c2.4-2.4,3.6-5.4,3.6-9c0-3.9-1.2-7-3.6-9.3C697.5,629.5,694.2,628.2,690.1,628.2z"
			/>
		<path class="st4" d="M730.9,644.2v13.1c0,0.7,0.2,1.3,0.5,1.7c0.3,0.4,0.9,0.7,1.8,1v1h-13.9v-1c0.8-0.2,1.4-0.5,1.7-0.9
			c0.3-0.4,0.5-1,0.5-1.7v-32.2c0-0.7-0.2-1.3-0.5-1.7c-0.3-0.4-0.9-0.7-1.8-0.9v-1h35.3c0.7,0,1.3-0.2,1.7-0.5s0.7-0.9,0.9-1.8h0.9
			v11.6h-0.9c-0.2-0.8-0.5-1.4-0.9-1.7c-0.4-0.3-1-0.5-1.7-0.5h-23.6v8.6h14.8c0.7,0,1.3-0.2,1.7-0.5c0.4-0.3,0.7-0.9,0.9-1.8h0.9
			v11.3h-0.9c-0.2-0.8-0.5-1.4-0.9-1.7c-0.4-0.3-1-0.5-1.7-0.5H730.9z"/>
		<path class="st4" d="M774.8,625.1v32.2c0,0.7,0.2,1.3,0.5,1.7c0.3,0.4,0.9,0.7,1.8,1v1h-13.9v-1c0.8-0.2,1.4-0.5,1.7-0.9
			c0.3-0.4,0.5-1,0.5-1.7v-32.2c0-0.7-0.2-1.3-0.5-1.7c-0.3-0.4-0.9-0.7-1.8-0.9v-1H777v1c-0.8,0.2-1.4,0.5-1.8,0.9
			C774.9,623.8,774.8,624.4,774.8,625.1z"/>
		<path class="st4" d="M794.8,635v22.3c0,0.7,0.2,1.3,0.5,1.7c0.3,0.4,0.9,0.7,1.7,0.9v1h-13.1v-1c0.8-0.2,1.4-0.5,1.7-0.9
			c0.3-0.4,0.5-1,0.5-1.7v-32.2c0-0.7-0.2-1.3-0.5-1.7c-0.3-0.4-0.9-0.7-1.8-0.9v-1h15.1v1c-1,0.3-1.5,0.7-1.5,1.4
			c0,0.6,0.4,1.2,1.1,2l21.1,20.9v-21.7c0-0.7-0.2-1.3-0.5-1.7c-0.3-0.4-0.9-0.7-1.8-0.9v-1h13.1v1c-0.8,0.2-1.4,0.5-1.8,0.9
			c-0.3,0.4-0.5,0.9-0.5,1.7v32.2c0,0.7,0.2,1.3,0.5,1.7c0.3,0.4,0.9,0.7,1.8,1v1h-14.1v-1c1-0.2,1.5-0.6,1.5-1.3
			c0-0.3-0.1-0.7-0.4-1s-0.9-1-1.9-2.1L794.8,635z"/>
		<path class="st4" d="M867.3,651.1h-18.1l-2,4.3c-0.5,1-0.7,1.8-0.7,2.4c0,1.1,0.8,1.8,2.2,2.1v1h-14.5v-1c0.9-0.1,1.6-0.4,2-0.8
			c0.4-0.4,0.9-1.2,1.5-2.4l14.4-29.1c0.5-1.1,0.8-2.1,0.8-2.9c0-1-0.7-1.7-2-2.2v-1h15.3v1c-1.3,0.5-1.9,1.3-1.9,2.4
			c0,0.8,0.3,1.7,0.9,2.8L880,656c0.8,1.5,1.5,2.5,1.9,3c0.5,0.5,1.2,0.8,2.1,1v1H868v-1c1.5-0.3,2.3-1,2.3-2.1
			c0-0.7-0.3-1.6-0.9-2.7L867.3,651.1z M864.4,645.5l-6.4-12.7l-6.1,12.7H864.4z"/>
		<path class="st4" d="M898.2,635v22.3c0,0.7,0.2,1.3,0.5,1.7c0.3,0.4,0.9,0.7,1.7,0.9v1h-13.1v-1c0.8-0.2,1.4-0.5,1.7-0.9
			c0.3-0.4,0.5-1,0.5-1.7v-32.2c0-0.7-0.2-1.3-0.5-1.7c-0.3-0.4-0.9-0.7-1.8-0.9v-1h15.1v1c-1,0.3-1.5,0.7-1.5,1.4
			c0,0.6,0.4,1.2,1.1,2l21.1,20.9v-21.7c0-0.7-0.2-1.3-0.5-1.7c-0.3-0.4-0.9-0.7-1.8-0.9v-1H934v1c-0.8,0.2-1.4,0.5-1.8,0.9
			c-0.3,0.4-0.5,0.9-0.5,1.7v32.2c0,0.7,0.2,1.3,0.5,1.7c0.3,0.4,0.9,0.7,1.8,1v1h-14.1v-1c1-0.2,1.5-0.6,1.5-1.3
			c0-0.3-0.1-0.7-0.4-1s-0.9-1-1.9-2.1L898.2,635z"/>
		<path class="st4" d="M979.4,646.8l5.9,8.7l-0.8,0.6c-0.6-0.4-1-0.6-1.3-0.6c-0.4,0-1.3,0.4-2.8,1.3c-3.2,1.9-6,3.2-8.5,3.9
			c-2.5,0.7-5.3,1.1-8.5,1.1c-6.4,0-11.7-1.5-15.7-4.6c-2.3-1.8-4.1-4-5.5-6.6c-1.5-2.9-2.2-6-2.2-9.3c0-4.6,1.3-8.7,4-12.2
			c4.2-5.5,10.6-8.3,19.3-8.3c3.2,0,6.1,0.4,8.6,1.1c2.5,0.7,5.3,2,8.5,3.9c1.5,0.9,2.4,1.3,2.8,1.3c0.3,0,0.8-0.2,1.3-0.6l0.8,0.6
			l-5.9,8.6l-0.8-0.6c0-0.3,0-0.5,0.1-0.5c0-0.2,0-0.4,0-0.5c0-1.1-1.6-2.4-4.7-3.9c-3-1.4-6-2.1-9.1-2.1c-4.3,0-7.8,1.1-10.5,3.4
			c-3.2,2.5-4.7,5.8-4.7,9.7c0,4,1.6,7.2,4.7,9.7c2.8,2.2,6.3,3.3,10.5,3.3c3.3,0,6.6-0.8,9.9-2.5c2.6-1.3,3.9-2.5,3.9-3.4
			c0,0,0-0.4-0.1-1L979.4,646.8z"/>
		<path class="st4" d="M1002.7,644.2v9.6h25c0.7,0,1.3-0.2,1.7-0.5c0.4-0.3,0.7-0.9,0.9-1.8h1v11.6h-1c-0.2-0.8-0.5-1.4-0.9-1.7
			c-0.4-0.3-1-0.5-1.7-0.5H991v-1c0.8-0.2,1.4-0.5,1.7-0.9c0.3-0.4,0.5-1,0.5-1.7v-32.2c0-0.7-0.2-1.3-0.5-1.7
			c-0.3-0.4-0.9-0.7-1.8-0.9v-1h35.6c0.7,0,1.3-0.2,1.7-0.5c0.4-0.3,0.7-0.9,0.9-1.8h0.9v11.6h-0.9c-0.2-0.9-0.5-1.4-0.9-1.8
			c-0.4-0.3-1-0.5-1.7-0.5h-23.9v8.6h14.8c0.7,0,1.3-0.2,1.7-0.5s0.7-0.9,1-1.8h0.9v11.3h-0.9c-0.2-0.8-0.5-1.4-0.9-1.7
			c-0.4-0.3-1-0.5-1.7-0.5H1002.7z"/>
	</g>
</g>
</svg>
